# xmcd
#
# Track frame offsets:
#	182
#	11497
#	20527
#	35480
#	55970
#	61587
#	71870
#	87962
#	98267
#	113817
#	126500
#	133477
#	142277
#	149102
#	161772
#	171097
#	180195
#	187727
#	199130
#	214830
#
# Disc length: 3020 seconds
#
# Revision: 9
# Processed by: cddbd v1.5.2PL0 Copyright (c) Steve Scherf et al.
# Submitted via: EZCDAudioConverter 1.3.4.1
#
DISCID=290bca14
DTITLE=X - Wild Gift
DYEAR=1981
DGENRE=
TTITLE0=The Once Over Twice
TTITLE1=We're Desperate
TTITLE2=Adult Books
TTITLE3=Universal Corner
TTITLE4=I'm Coming Over
TTITLE5=It's Who You Know
TTITLE6=In This House That I Call Home
TTITLE7=Some Other Time
TTITLE8=White Girl
TTITLE9=Beyond And Back
TTITLE10=Back 2 The Base
TTITLE11=When Our Love Passed Out On The Couch
TTITLE12=Year 1
TTITLE13=Beyond And Back [Live]
TTITLE14=Blue Spark [Demo]
TTITLE15=We're Desperate [Single]
TTITLE16=Back 2 The Base [Live]
TTITLE17=Heater [Rehearsal]
TTITLE18=White Girl [Single Mix]
TTITLE19=The Once Over Twice [Single Mx]
EXTD=
EXTT0=
EXTT1=
EXTT2=
EXTT3=
EXTT4=
EXTT5=
EXTT6=
EXTT7=
EXTT8=
EXTT9=
EXTT10=
EXTT11=
EXTT12=
EXTT13=
EXTT14=
EXTT15=
EXTT16=
EXTT17=
EXTT18=
EXTT19=
PLAYORDER=
